<?xml version="1.0" encoding="UTF-8" standalone="no"?>
<!-- Created with Inkscape (http://www.inkscape.org/) -->

<svg
   xmlns:dc="http://purl.org/dc/elements/1.1/"
   xmlns:cc="http://creativecommons.org/ns#"
   xmlns:rdf="http://www.w3.org/1999/02/22-rdf-syntax-ns#"
   xmlns:svg="http://www.w3.org/2000/svg"
   xmlns="http://www.w3.org/2000/svg"
   xmlns:sodipodi="http://sodipodi.sourceforge.net/DTD/sodipodi-0.dtd"
   xmlns:inkscape="http://www.inkscape.org/namespaces/inkscape"
   width="128mm"
   height="128mm"
   viewBox="0 0 453.54331 453.54331"
   id="svg2"
   version="1.1"
   inkscape:version="0.91 r13725"
   sodipodi:docname="logo.svg"
   inkscape:export-filename="/home/adev/Hasura/web/iplbox-app/src/Assets/Icons/AlexaIPL.png"
   inkscape:export-xdpi="40.209999"
   inkscape:export-ydpi="40.209999">
  <defs
     id="defs4">
    <clipPath
       clipPathUnits="userSpaceOnUse"
       id="clipPath16">
      <path
         d="M 0,512 512,512 512,0 0,0 0,512 Z"
         id="path18"
         inkscape:connector-curvature="0" />
    </clipPath>
  </defs>
  <sodipodi:namedview
     id="base"
     pagecolor="#ffffff"
     bordercolor="#666666"
     borderopacity="1.0"
     inkscape:pageopacity="0.0"
     inkscape:pageshadow="2"
     inkscape:zoom="0.98994949"
     inkscape:cx="99.828127"
     inkscape:cy="279.89825"
     inkscape:document-units="px"
     inkscape:current-layer="layer1"
     showgrid="false"
     inkscape:window-width="1366"
     inkscape:window-height="719"
     inkscape:window-x="0"
     inkscape:window-y="25"
     inkscape:window-maximized="1" />
  <metadata
     id="metadata7">
    <rdf:RDF>
      <cc:Work
         rdf:about="">
        <dc:format>image/svg+xml</dc:format>
        <dc:type
           rdf:resource="http://purl.org/dc/dcmitype/StillImage" />
        <dc:title />
      </cc:Work>
    </rdf:RDF>
  </metadata>
  <g
     inkscape:label="Layer 1"
     inkscape:groupmode="layer"
     id="layer1"
     transform="translate(0,-598.8189)">
    <circle
       style="opacity:1;fill:#ffffff;fill-opacity:1;fill-rule:nonzero;stroke:none;stroke-width:4.94199991;stroke-linejoin:round;stroke-miterlimit:4;stroke-dasharray:none;stroke-dashoffset:0;stroke-opacity:1"
       id="path4153"
       cx="228.27417"
       cy="825.07788"
       r="224.25386" />
    <g
       transform="matrix(1.25,0,0,-1.25,-91.705021,1145.0776)"
       id="g12">
      <g
         id="g14"
         clip-path="url(#clipPath16)">
        <g
           id="g20"
           transform="translate(227.9176,79.1873)">
          <path
             d="m 0,0 0,35.501 c 0,12.621 -7.731,23.871 -19.451,28.847 -43.869,18.622 -74.575,62.183 -74.575,112.465 0,67.021 54.55,122.107 122.107,122.107 67.559,0 122.107,-55.086 122.107,-122.107 C 150.188,97.735 89.017,22.961 0,0 m 28.081,355.879 c -99.072,0 -179.066,-80.781 -179.066,-179.066 0,-98.285 79.994,-179.067 179.066,-179.067 99.073,0 179.068,80.782 179.068,179.067 0,98.285 -79.995,179.066 -179.068,179.066"
             style="fill:#00caff;fill-opacity:1;fill-rule:nonzero;stroke:none"
             id="path22"
             inkscape:connector-curvature="0" />
        </g>
      </g>
    </g>
    <path
       d="m 232.83268,709.76488 c -34.01196,-0.57651 -62.5471,36.31732 -62.5471,36.31732 l 4.1793,0 c 59.81107,-56.84396 117.26496,-0.53786 77.96809,61.68213 -21.04158,35.4532 -49.28864,40.64121 -49.28864,40.64121 27.62207,-4.5034 44.22838,-26.25055 44.22838,-26.25055 31.49489,-25.26587 48.12939,-113.99453 -14.54003,-112.39011"
       style="fill:#5893cf;fill-opacity:1;fill-rule:evenodd;stroke:none"
       id="path14"
       inkscape:connector-curvature="0" />
    <path
       d="m 151.83873,778.36457 c 0,0 8.64672,-21.32919 14.12324,-25.65307 l 1.1531,1.72955 c 0,0 -11.81769,14.98815 -15.27634,23.92352"
       style="fill:#40a5dd;fill-opacity:1;fill-rule:evenodd;stroke:none"
       id="path16"
       inkscape:connector-curvature="0" />
    <path
       d="m 195.10387,918.34646 c 0,0 0.0703,-4.6527 1.30078,-5.12692 0,0 5.8829,-4.37073 6.97258,-6.21632 0,0 3.9669,-6.29316 5.53692,-7.31831 0,0 1.56341,-3.55056 2.32009,-3.7558 l 2.9409,-6.76707 c 0,0 6.97325,-4.99893 7.99853,-7.3185 0,0 1.56969,-3.4095 2.38992,-3.55029 0,0 1.16679,-11.4843 0.27582,-15.38044 0,0 -0.54442,-7.65195 -1.16026,-8.40864 0,0 -1.56969,-9.36251 -4.10112,-11.07372 0,0 10.52275,-5.46643 15.64983,-10.04843 0,0 9.84992,-8.20293 12.03545,-11.07373 l 2.46068,2.11477 c 0,0 1.71056,0 1.4354,3.28157 0,0 4.30619,4.65211 4.85125,5.60728 l 3.41588,3.62028 c 0,0 3.34511,1.64111 5.94664,7.24838 0,0 8.40864,15.31637 8.6137,17.50189 0,0 4.03038,-3.82663 7.58776,-1.6411 0,0 2.74238,2.18553 0.96107,5.05658 l -8.13938,10.52897 c 0,0 -4.51124,1.84591 -5.74158,2.0511 0,0 -3.55082,1.1662 -8.26712,7.17758 l -21.32788,19.95576 -3.55672,1.02568 c 0,0 -1.44195,4.79374 -1.09603,6.70333 0,0 -0.33937,3.75522 -1.36465,4.44107 0,0 -4.03759,-0.40357 -4.99212,-2.39045 l -4.03103,-5.19731 c 0,0 -8.13873,7.5942 -12.78494,15.2459 0,0 0.47432,2.73007 -0.61517,3.55051 0,0 -12.71476,3.14641 -14.97039,-2.18548 0,0 -0.33981,-4.37738 -0.95531,-4.37738 0,0 -0.27535,-3.28076 0.4105,-3.28076"
       style="fill:#293778;fill-opacity:1;fill-rule:nonzero;stroke:none"
       id="path20"
       inkscape:connector-curvature="0" />
    <path
       d="m 197.63538,924.02437 0,-4.17189 c 0,0 1.35836,-2.59543 3.75497,-1.7752 0,0 6.36402,0.75624 6.49859,3.07604 l 0.67924,2.46083 c 0,0 0.95454,1.57023 -0.82023,2.18547 0,0 -6.55591,1.30079 -10.11257,-1.77525"
       style="fill:#fefefe;fill-opacity:1;fill-rule:nonzero;stroke:none"
       id="path22-3"
       inkscape:connector-curvature="0" />
    <path
       d="m 230.24163,912.74508 -2.12132,-3.48606 c 0,0 -0.54442,-1.23678 1.02593,-1.16645 0,0 2.72929,-0.82017 3.41522,-0.82017 0,0 0.48742,3.89657 -0.0642,6.15238 0,0 -1.36464,0.69204 -2.25562,-0.6797"
       style="fill:#fefefe;fill-opacity:1;fill-rule:nonzero;stroke:none"
       id="path24"
       inkscape:connector-curvature="0" />
    <path
       d="m 235.91313,868.85986 c 0,0 2.87144,-2.31983 8.40862,-1.64066 0,0 5.05633,1.22405 5.7416,2.52508 0,0 -6.22245,-2.80711 -10.11919,-1.64092 l 1.57691,0.20526 c 0,0 -4.58201,0.21135 -5.60794,0.55124"
       style="fill:#fefefe;fill-opacity:1;fill-rule:nonzero;stroke:none"
       id="path26"
       inkscape:connector-curvature="0" />
    <path
       d="m 267.15512,874.12089 c 0,0 3.14661,-4.30625 4.92203,-4.30625 0,0 5.52998,-1.85225 2.1141,-7.65851 0,0 4.71697,-4.02448 7.38337,-1.4996 0,0 0.96107,1.56381 0.75602,2.52488 0,0 -3.48663,3.96716 -5.60795,5.40282 0,0 -5.11987,4.37707 -6.28665,4.30646 0,0 -1.4354,1.3011 -3.28092,1.2302"
       style="fill:#fefefe;fill-opacity:1;fill-rule:nonzero;stroke:none"
       id="path28"
       inkscape:connector-curvature="0" />
    <path
       d="m 182.86978,780.53764 c 0,0 -4.0309,-6.22246 -3.69128,-9.43326 0,0 -1.16646,-2.25629 2.73008,-7.72207 0,0 5.19087,-7.92776 14.56006,-3.48662 0,0 2.80713,0.74948 5.81281,6.90184 0,0 3.96684,2.05712 4.51145,1.98702 0,0 0.74981,1.70465 -3.28104,3.55017 l 1.15978,2.80724 c 0,0 3.07631,-0.61582 3.14667,-1.09604 l 0.27536,1.36464 -0.002,0.002 0.0909,0.43501 0.0463,-0.0268 0.33988,1.5769 c 0,0 4.92168,-4.7235 7.99754,-7.93432 0,0 1.43605,-5.12641 2.53143,-7.17699 0,0 -1.44194,-7.85702 -1.09538,-8.13281 0,0 3.14005,-2.7365 6.97193,-2.12133 0,0 -1.02528,-3.81943 -2.80004,-3.55017 l 0,-0.82023 c 0,0 -5.60794,0.75602 -5.12707,5.33214 0,0 -2.12133,1.02527 -4.71697,-1.02529 l -1.71055,-4.71696 c 0,0 -1.76918,-1.23689 -3.55056,1.4996 0,0 -19.27678,4.03759 -33.63187,6.22245 0,0 -20.58455,3.14661 -27.21084,0.68593 0,0 -2.59545,-4.6521 -0.33959,-7.2484 l 4.10124,0.0708 c 0,0 -4.23586,0.82022 -4.64608,2.05056 0,0 20.09728,1.57035 29.46004,-1.71055 0,0 28.71661,-5.05697 32.2671,-5.94731 0,0 -0.47444,-1.29454 -1.43566,-0.95518 0,0 -27.76155,4.64621 -33.15769,4.44115 0,0 28.64625,-4.99211 32.74771,-4.92135 0,0 1.1662,-0.67938 3.2813,1.50614 0,0 0.96095,-0.54507 1.23015,-1.02594 0,0 -0.14072,2.46068 1.08981,2.46068 0,0 0.0766,1.3653 0.55097,1.3653 l 1.84551,2.66574 c 0,0 8.27368,-2.73583 9.84338,-3.35101 0,0 -0.13431,-1.7053 -0.41012,-1.77542 l -9.91413,3.21016 -2.25563,-4.10113 2.18554,3.07651 c 0,0 6.83761,-2.05056 10.11918,-2.8007 l -1.02528,-3.96683 c 0,0 0.95453,2.39714 1.23034,-0.75013 l 0.48087,2.05057 c 0,0 2.31982,-0.2044 0.67937,2.25628 0,0 0.62107,4.10113 0.96043,4.92136 l 4.37104,2.12132 -2.18553,1.3653 2.53144,0.0708 c 0,0 -3.41586,2.25563 -2.46067,3.89607 0,0 2.11476,2.04469 4.78117,0.47433 0,0 1.30698,1.23034 1.78129,1.23034 0,0 0.47367,1.23689 -1.09602,1.98637 l -3.00577,13.05419 c 0,0 -0.75602,3.49316 -1.91626,4.37759 l -8.06797,15.30982 c 0,0 11.42028,9.43916 12.64997,12.16976 l 8.40864,13.05418 -0.0708,1.50616 2.18554,1.02528 c 0,0 -10.52342,14.90559 -24.74375,22.96767 0,0 -1.7112,-3.0123 -0.27514,-7.52355 0,0 -1.97393,-5.46644 -1.4996,-5.46644 0,0 -0.82678,-2.87079 -2.19209,-3.69102 l -14.28426,-12.71417 -10.18346,-9.50467 c 0,0 -1.51245,-1.15959 -1.37146,-8.5423 0,0 -3.14031,-0.89033 -2.18526,-3.48595 0,0 -2.18546,-3.55673 -1.64064,-4.1719 0,0 2.60185,0 2.94147,-0.61517 0,0 2.12126,2.53733 3.89647,2.39648 0,0 -4.24245,-3.42176 -4.85768,-3.01165 0,0 -2.99926,-1.3653 -3.34525,-2.59564 0,0 2.80679,2.67229 2.25583,0.89098 l -1.98662,-1.3011 c 0,0 -0.20526,-1.85206 -0.67945,-1.91626"
       style="fill:#293778;fill-opacity:1;fill-rule:nonzero;stroke:none"
       id="path30"
       inkscape:connector-curvature="0" />
    <path
       d="m 211.11894,736.69021 10.2535,-1.02528 0,0.97418 c 0,0 -1.89727,-0.97418 -2.56354,0.76913 0,0 -1.79441,-2.10167 -2.76859,0.0511 0,0 -2.40959,-1.84552 -3.07586,0.71802 0,0 -1.53825,-1.43541 -1.84551,-1.48716"
       style="fill:#293778;fill-opacity:1;fill-rule:nonzero;stroke:none"
       id="path32"
       inkscape:connector-curvature="0" />
    <path
       d="m 223.32079,736.3312 c 0,0 0.56343,-1.33254 2.5629,-0.61517 0,0 7.02368,-0.76847 8.15182,1.58935 0,0 1.07704,2.35849 1.07704,3.43487 l 3.48596,0.66693 -0.41011,3.94717 -1.79441,0.92309 c 0,0 -0.35901,4.05003 -0.46122,4.97312 0,0 -1.12814,-6.10126 -3.38376,-4.66521 0,0 -1.94836,-0.15396 -2.66574,-1.12814 l -2.71748,-1.38429 2.71748,0.35901 c 0,0 3.07585,0.56407 1.22969,-1.79441 0,0 4.25575,0.66627 2.35848,-1.07638 l 1.02595,-0.35903 c 0,0 -0.76914,-4.25508 -1.64111,-4.563 0,0 -1.0764,0.20506 -0.87134,1.07704 0,0 -1.4354,-2.61529 -2.8197,-0.56472 0,0 -1.12812,-1.4865 -2.51243,-0.76847 0,0 -1.64045,-0.87199 -3.33202,-0.0517"
       style="fill:#293778;fill-opacity:1;fill-rule:nonzero;stroke:none"
       id="path34"
       inkscape:connector-curvature="0" />
    <path
       d="m 184.23043,779.3774 c 0,0 -0.30785,2.46133 0.76906,3.28157 0,0 5.9471,5.12641 7.63866,5.58828 0,0 8.30566,0.66627 15.43174,-4.35795 0,0 -0.25616,-4.30618 -0.46116,-4.40904 l 1.43541,-1.12814 0,-0.66627 -1.58949,1.17923 -0.87133,-2.15342 1.69182,-0.97419 -0.25616,-0.66627 c 0,0 -6.92141,3.69103 -15.53432,5.43434 l -4.3577,1.02528 c 0,0 -2.35847,0.61518 -2.5123,-3.2298 l -0.25641,0.20506 c 0,0 -0.25643,3.74276 2.7173,3.74276 0,0 15.84165,-3.99893 17.89254,-5.17817 0,0 0.87165,0.66627 1.17924,6.71644 0,0 -12.40713,6.30565 -16.20074,2.51178 l -5.33193,-3.89674 c 0,0 -1.58941,-2.05057 -1.38423,-3.02475"
       style="fill:#fefefe;fill-opacity:1;fill-rule:nonzero;stroke:none"
       id="path36"
       inkscape:connector-curvature="0" />
    <path
       d="m 193.48189,787.52791 2.40965,-7.07478 0.8205,-0.35901 -2.35849,7.38269 -0.87166,0.0511"
       style="fill:#fefefe;fill-opacity:1;fill-rule:nonzero;stroke:none"
       id="path38"
       inkscape:connector-curvature="0" />
    <path
       d="m 202.35128,785.73351 c 0,0 -0.56373,-6.25457 -1.53805,-7.12589 l 1.02549,-0.15396 c 0,0 0.92307,5.22928 1.23066,7.07478 l -0.7181,0.20507"
       style="fill:#fefefe;fill-opacity:1;fill-rule:nonzero;stroke:none"
       id="path40"
       inkscape:connector-curvature="0" />
    <path
       d="m 187.99646,782.5548 c 0,0 0.10202,3.02475 9.12555,0.97418 0,0 8.56201,-1.58935 11.74046,-5.28038 l -0.10265,-0.61517 c 0,0 -3.99861,3.99893 -10.91996,4.71631 0,0 -6.30593,2.10232 -9.84339,0.20506"
       style="fill:#fefefe;fill-opacity:1;fill-rule:nonzero;stroke:none"
       id="path42"
       inkscape:connector-curvature="0" />
  </g>
</svg>
